<svg
  width={47}
  viewBox="0 0 47 38"
  height={38}
  fill="#4FB5A9"
  xmlns="http://www.w3.org/2000/svg"
  className="block comment__icon comment__icon__right"
>
  <path
    xmlns="http://www.w3.org/2000/svg"
    d="m20.8889 4.21442c-2.2112 1.26432-3.999 2.36475-5.3634 3.30129-1.3643.88971-2.7522 2.0838-4.1636 3.58229-1.3174 1.4048-2.32887 2.8798-3.03457 4.4251-.70571 1.5453-1.1997 3.5354-1.48198 5.9704h3.38735c2.9169 0 5.1987.7258 6.8454 2.1775 1.6937 1.4048 2.5405 3.4886 2.5405 6.2514 0 1.9667-.7527 3.8164-2.2582 5.5489-1.4585 1.6858-3.4815 2.5287-6.0691 2.5287-4.04606 0-6.93945-1.3112-8.68019-3.9335-1.74074-2.6691-2.61111-6.1577-2.61111-10.4658 0-3.0437.658659-5.8065 1.97598-8.2883 1.31731-2.5287 2.91691-4.7764 4.7988-6.74308 1.92892-2.01356 3.97542-3.72274 6.13962-5.12755 2.1642-1.4048 3.9755-2.55206 5.4339-3.44177zm26.1111 0c-2.2112 1.26432-3.999 2.36475-5.3634 3.30129-1.3643.88971-2.7522 2.0838-4.1636 3.58229-1.3644 1.4516-2.3994 2.9501-3.1051 4.4953-.6587 1.4985-1.1292 3.4652-1.4114 5.9002h3.3873c2.917 0 5.1987.7258 6.8454 2.1775 1.6937 1.4048 2.5405 3.4886 2.5405 6.2514 0 1.9667-.7527 3.8164-2.2582 5.5489-1.4585 1.6858-3.4815 2.5287-6.0691 2.5287-4.046 0-6.9394-1.3112-8.6802-3.9335-1.7407-2.6691-2.6111-6.1577-2.6111-10.4658 0-3.0437.6587-5.8065 1.976-8.2883 1.3173-2.5287 2.9169-4.7764 4.7988-6.74308 1.9289-2.01356 3.9755-3.72274 6.1396-5.12755 2.1642-1.4048 3.9755-2.55206 5.434-3.44177z"
  />
</svg>
